<?xml version="1.0" encoding="UTF-8" standalone="no"?>
<!-- Created with Inkscape (http://www.inkscape.org/) -->

<svg
   xmlns:dc="http://purl.org/dc/elements/1.1/"
   xmlns:cc="http://creativecommons.org/ns#"
   xmlns:rdf="http://www.w3.org/1999/02/22-rdf-syntax-ns#"
   xmlns:svg="http://www.w3.org/2000/svg"
   xmlns="http://www.w3.org/2000/svg"
   xmlns:sodipodi="http://sodipodi.sourceforge.net/DTD/sodipodi-0.dtd"
   xmlns:inkscape="http://www.inkscape.org/namespaces/inkscape"
   width="508mm"
   height="238.125mm"
   viewBox="0 0 508 238.125"
   version="1.1"
   id="svg2828"
   sodipodi:docname="banner.svg"
   inkscape:version="0.92.5 (2060ec1f9f, 2020-04-08)">
  <defs
     id="defs2822" />
  <sodipodi:namedview
     id="base"
     pagecolor="#ffffff"
     bordercolor="#666666"
     borderopacity="1.0"
     inkscape:pageopacity="0.0"
     inkscape:pageshadow="2"
     inkscape:zoom="0.35"
     inkscape:cx="1274.4982"
     inkscape:cy="324.93444"
     inkscape:document-units="mm"
     inkscape:current-layer="layer1"
     showgrid="false"
     inkscape:object-paths="true"
     inkscape:snap-intersection-paths="true"
     inkscape:window-width="1366"
     inkscape:window-height="716"
     inkscape:window-x="0"
     inkscape:window-y="0"
     inkscape:window-maximized="1" />
  <metadata
     id="metadata2825">
    <rdf:RDF>
      <cc:Work
         rdf:about="">
        <dc:format>image/svg+xml</dc:format>
        <dc:type
           rdf:resource="http://purl.org/dc/dcmitype/StillImage" />
        <dc:title></dc:title>
      </cc:Work>
    </rdf:RDF>
  </metadata>
  <g
     inkscape:label="Layer 1"
     inkscape:groupmode="layer"
     id="layer1"
     transform="translate(348.49405,101.00893)">
    <path
       style="opacity:1;fill:#ffc66a;fill-opacity:1;stroke:none;stroke-width:0.26244092"
       d="M -347.73802,-100.2529 V 84.199405 l -1.06908,11.339285 c 0,0 45.53855,40.02873 139.41218,40.02873 174.361363,0 368.90086,-51.368015 368.90086,-51.368015 v 0 -184.452305 z"
       id="rect2841"
       inkscape:connector-curvature="0"
       sodipodi:nodetypes="ccsccccc" />
    <path
       style="opacity:1;fill:#ffcd84;fill-opacity:1;stroke:none;stroke-width:0.99999994"
       d="M 2.8574219 2.8574219 L 2.8574219 448.47266 A 371.42855 371.42855 0 0 0 145.71484 477.14258 A 371.42855 371.42855 0 0 0 517.14258 105.71484 A 371.42855 371.42855 0 0 0 502.44531 2.8574219 L 2.8574219 2.8574219 z "
       transform="matrix(0.26458333,0,0,0.26458333,-348.49405,-101.00893)"
       id="path2843" />
    <path
       id="path2858"
       d="m 159.50592,-100.25298 v 48.265692 a 40.23035,40.23035 0 0 1 -15.47325,3.105313 40.23035,40.23035 0 0 1 -40.23025,-40.230264 40.23035,40.23035 0 0 1 1.59189,-11.140741 z"
       style="opacity:1;fill:#ffcd84;fill-opacity:1;stroke:none;stroke-width:0.10831248"
       inkscape:connector-curvature="0" />
  </g>
</svg>
