<?xml version="1.0" encoding="UTF-8" standalone="no"?>
<svg
   xmlns:dc="http://purl.org/dc/elements/1.1/"
   xmlns:cc="http://creativecommons.org/ns#"
   xmlns:rdf="http://www.w3.org/1999/02/22-rdf-syntax-ns#"
   xmlns:svg="http://www.w3.org/2000/svg"
   xmlns="http://www.w3.org/2000/svg"
   xmlns:sodipodi="http://sodipodi.sourceforge.net/DTD/sodipodi-0.dtd"
   xmlns:inkscape="http://www.inkscape.org/namespaces/inkscape"
   sodipodi:docname="product.svg"
   inkscape:version="1.0 (5b275a35d9, 2020-05-03)"
   id="svg8"
   version="1.1"
   viewBox="0 0 508 120.65"
   height="120.65mm"
   width="508mm">
  <defs
     id="defs2" />
  <sodipodi:namedview
     inkscape:window-maximized="1"
     inkscape:window-y="0"
     inkscape:window-x="0"
     inkscape:window-height="709"
     inkscape:window-width="1366"
     showgrid="false"
     inkscape:document-rotation="0"
     inkscape:current-layer="g933"
     inkscape:document-units="mm"
     inkscape:cy="52.57934"
     inkscape:cx="852.81738"
     inkscape:zoom="0.35"
     inkscape:pageshadow="2"
     inkscape:pageopacity="0.0"
     borderopacity="1.0"
     bordercolor="#666666"
     pagecolor="#ffffff"
     id="base" />
  <metadata
     id="metadata5">
    <rdf:RDF>
      <cc:Work
         rdf:about="">
        <dc:format>image/svg+xml</dc:format>
        <dc:type
           rdf:resource="http://purl.org/dc/dcmitype/StillImage" />
        <dc:title></dc:title>
      </cc:Work>
    </rdf:RDF>
  </metadata>
  <g
     transform="translate(-61.62064,-259.24406)"
     id="layer1"
     inkscape:groupmode="layer"
     inkscape:label="Layer 1">
    <path
       d=""
       id="path849"
       style="fill:#000000;stroke-width:0.264583" />
    <path
       d=""
       id="path847"
       style="fill:#000000;stroke-width:0.264583" />
    <g
       style="fill:#eedaff;fill-opacity:1"
       transform="translate(36.546404,80.145412)"
       id="g933">
      <path
         id="path949"
         d="m 25.074236,239.42365 v -60.325 h 254.000004 254 v 60.325 60.325 h -254 -254.000004 z m 462.308684,41.24763 c 1.04653,-0.16058 2.37902,-0.50754 2.96111,-0.77103 1.02812,-0.4654 2.58852,-1.84333 2.09664,-1.85148 -0.13452,-0.002 -0.1255,-0.0915 0.0201,-0.19844 0.14552,-0.10691 0.49311,-0.46417 0.77243,-0.79391 0.50072,-0.59112 0.50072,-0.60522 0,-1.00678 -0.48744,-0.39091 -0.48464,-0.39605 0.0701,-0.12809 0.70548,0.34082 0.95562,0.35542 0.7635,0.0446 -0.0797,-0.12903 0.0323,-0.38174 0.24898,-0.56156 0.45111,-0.37439 0.51927,-0.79134 0.12938,-0.79134 -0.14552,0 -0.26458,0.1786 -0.26458,0.39688 0,0.21828 -0.19704,0.39687 -0.43789,0.39687 -0.38976,0 -0.38378,-0.0598 0.0546,-0.54415 0.3415,-0.37736 0.69874,-0.50223 1.16547,-0.40738 0.37018,0.0752 0.51453,0.0688 0.3208,-0.0142 -0.25773,-0.1105 -0.15573,-0.35612 0.38024,-0.91554 0.40285,-0.42049 0.63219,-0.76453 0.50966,-0.76453 -0.12253,0 -0.007,-0.23813 0.25609,-0.52917 0.43067,-0.47588 0.43479,-0.52917 0.041,-0.52917 -0.24085,0 -0.43788,0.11907 -0.43788,0.26459 0,0.14552 -0.13751,0.26458 -0.3056,0.26458 -0.1733,0 -0.0983,-0.22908 0.17331,-0.52917 0.52117,-0.57589 1.06868,-0.68615 1.28103,-0.25796 0.074,0.14915 0.0994,0.11939 0.0566,-0.0661 -0.0429,-0.18554 0.10358,-0.5457 0.32544,-0.80037 0.36393,-0.41776 0.35904,-0.46302 -0.0501,-0.46302 -0.25919,0 -0.37735,-0.12324 -0.27575,-0.28763 0.0978,-0.1582 0.40264,-0.22883 0.67744,-0.15697 0.27482,0.0719 0.44365,0.04 0.37518,-0.0708 -0.0685,-0.11079 0.1693,-0.47746 0.5284,-0.81482 0.62772,-0.5897 0.63505,-0.63441 0.19028,-1.15838 -0.44156,-0.5202 -0.44127,-0.52845 0.007,-0.18113 0.25818,0.20013 0.49758,0.31714 0.53197,0.26002 0.0344,-0.0571 0.28983,-0.37363 0.56759,-0.70337 0.49707,-0.59007 0.49702,-0.60594 -0.003,-1.00678 -0.48744,-0.39091 -0.48464,-0.39605 0.0701,-0.12809 0.65495,0.3164 1.05354,0.36726 0.78666,0.10038 -0.0983,-0.0983 0.0812,-0.45554 0.39891,-0.79375 0.59634,-0.63479 0.5643,-0.73013 -0.15285,-0.45493 -0.22934,0.088 -0.3511,0.2666 -0.27059,0.39687 0.0805,0.13028 -0.0577,0.23686 -0.30713,0.23686 -0.41981,0 -0.41791,-0.0393 0.0254,-0.52916 0.26339,-0.29104 0.60926,-0.53293 0.76862,-0.53753 0.41859,-0.0121 1.83644,-1.31124 1.64258,-1.50509 -0.0899,-0.0899 0.0339,-0.38142 0.27506,-0.64789 0.40778,-0.45059 0.40783,-0.48449 0,-0.48449 -0.24085,0 -0.43788,0.11906 -0.43788,0.26458 0,0.14552 -0.14552,0.26458 -0.32338,0.26458 -0.17785,0 -0.0575,-0.26592 0.26758,-0.59094 0.52482,-0.52483 0.65719,-0.55095 1.18327,-0.23347 0.45788,0.27634 0.51808,0.27918 0.26521,0.0125 -0.26088,-0.27513 -0.23918,-0.44218 0.10713,-0.82486 0.40336,-0.4457 0.40199,-0.47987 -0.0193,-0.47987 -0.24942,0 -0.37693,-0.1239 -0.28334,-0.27534 0.0936,-0.15144 0.4132,-0.19822 0.71022,-0.10395 0.31834,0.10104 0.47548,0.0669 0.38274,-0.0831 -0.0865,-0.13995 0.13656,-0.53048 0.49565,-0.86784 0.62772,-0.5897 0.63505,-0.63441 0.19029,-1.15838 -0.43818,-0.51621 -0.43823,-0.52612 0,-0.18768 0.40097,0.31045 0.52998,0.27514 0.98337,-0.26914 0.5823,-0.69954 0.66927,-1.02333 0.27443,-1.02333 -0.14552,0 -0.26458,0.17859 -0.26458,0.39688 0,0.21828 -0.19704,0.39687 -0.43789,0.39687 -0.38941,0 -0.38325,-0.0604 0.0557,-0.54545 0.27974,-0.30912 0.6989,-0.49176 0.96742,-0.42155 0.26056,0.0682 0.41376,0.0268 0.34041,-0.0919 -0.0733,-0.11869 0.23329,-0.5243 0.68139,-0.90137 0.44812,-0.37706 0.7517,-0.68557 0.67463,-0.68557 -0.35338,0 -1.48796,0.63762 -1.48796,0.83622 0,0.12216 -0.13751,0.22211 -0.3056,0.22211 -0.1733,0 -0.0983,-0.22908 0.1733,-0.52917 0.2634,-0.29104 0.62058,-0.52916 0.79375,-0.52916 0.17317,0 0.53036,-0.23813 0.79375,-0.52917 0.43067,-0.47588 0.43479,-0.52917 0.041,-0.52917 -0.24085,0 -0.43788,0.11907 -0.43788,0.26459 0,0.14552 -0.1375,0.26458 -0.30559,0.26458 -0.17331,0 -0.0983,-0.22908 0.1733,-0.52917 0.52117,-0.57589 1.06868,-0.68615 1.28103,-0.25797 0.074,0.14916 0.0994,0.1194 0.0566,-0.0661 -0.0429,-0.18554 0.10358,-0.5457 0.32544,-0.80037 0.36319,-0.41693 0.35978,-0.46302 -0.0345,-0.46302 -0.24085,0 -0.43789,0.11907 -0.43789,0.26459 0,0.14552 -0.14552,0.26458 -0.32337,0.26458 -0.17785,0 -0.0575,-0.26593 0.26757,-0.59095 0.52483,-0.52482 0.6572,-0.55095 1.18327,-0.23346 0.46765,0.28224 0.52284,0.28423 0.2622,0.009 -0.26619,-0.28063 -0.19259,-0.49155 0.38024,-1.08945 0.39068,-0.4078 0.62002,-0.74145 0.50966,-0.74145 -0.11038,0 0,-0.20168 0.24749,-0.44818 0.42119,-0.4212 0.41905,-0.45841 -0.0355,-0.61786 -0.4376,-0.15351 -0.44249,-0.19275 -0.0512,-0.41174 0.86513,-0.48416 -0.45794,-5.82083 -2.40303,-9.69264 -4.78292,-9.52069 -14.10319,-15.5255 -24.83593,-16.00114 -5.21494,-0.23111 -9.83062,0.68597 -14.10296,2.80209 -10.30808,5.10572 -16.66097,15.18238 -16.66097,26.4269 0,6.06639 1.66254,11.55962 5.05021,16.68664 5.85134,8.85556 17.60215,14.06083 28.10431,12.4494 z m 4.01944,-2.35388 c 0.0899,-0.14552 0.27556,-0.26458 0.41249,-0.26458 0.13694,0 0.24897,0.11906 0.24897,0.26458 0,0.14552 -0.18563,0.26458 -0.41249,0.26458 -0.22688,0 -0.3389,-0.11906 -0.24897,-0.26458 z m 1.05833,-1.5875 c 0.0899,-0.14552 0.27557,-0.26458 0.41249,-0.26458 0.13695,0 0.24897,0.11906 0.24897,0.26458 0,0.14552 -0.18563,0.26458 -0.41248,0.26458 -0.22688,0 -0.33891,-0.11906 -0.24898,-0.26458 z m 2.42719,-3.47082 c 0.30821,-0.30822 0.72162,-0.49483 0.91868,-0.41468 0.2427,0.0987 0.16624,0.2041 -0.23701,0.32668 -0.32742,0.0995 -0.59531,0.28613 -0.59531,0.41468 0,0.12855 -0.14552,0.23372 -0.32338,0.23372 -0.18018,0 -0.0752,-0.24815 0.23702,-0.5604 z m 3.39365,-4.99585 c 0.0899,-0.14552 0.27556,-0.26458 0.41248,-0.26458 0.13695,0 0.24898,0.11906 0.24898,0.26458 0,0.14552 -0.18564,0.26459 -0.41249,0.26459 -0.22688,0 -0.3389,-0.11907 -0.24897,-0.26459 z m 1.05833,-1.5875 c 0.0899,-0.14552 0.27556,-0.26458 0.41249,-0.26458 0.13694,0 0.24897,0.11906 0.24897,0.26458 0,0.14552 -0.18563,0.26459 -0.41249,0.26459 -0.22688,0 -0.3389,-0.11907 -0.24897,-0.26459 z m 2.42718,-3.47082 c 0.30822,-0.30822 0.72163,-0.49482 0.91869,-0.41468 0.2427,0.0987 0.16624,0.2041 -0.23701,0.32668 -0.32743,0.0995 -0.59532,0.28613 -0.59532,0.41468 0,0.12855 -0.14552,0.23373 -0.32337,0.23373 -0.18018,0 -0.0752,-0.24816 0.23701,-0.56041 z m 3.39365,-4.99584 c 0.0899,-0.14552 0.27557,-0.26459 0.41249,-0.26459 0.13695,0 0.24897,0.11907 0.24897,0.26459 0,0.14552 -0.18563,0.26458 -0.41248,0.26458 -0.22688,0 -0.33891,-0.11906 -0.24898,-0.26458 z m 5.82084,-8.46667 c 0.0899,-0.14552 0.27556,-0.26458 0.41248,-0.26458 0.13695,0 0.24898,0.11906 0.24898,0.26458 0,0.14552 -0.18564,0.26458 -0.41249,0.26458 -0.22688,0 -0.3389,-0.11906 -0.24897,-0.26458 z M 93.543264,242.60666 c 0.622912,-0.23804 1.03963,-0.53491 0.926042,-0.6597 -0.113591,-0.1248 -0.06844,-0.14789 0.100325,-0.0513 0.458242,0.26219 1.199041,-0.10618 1.041122,-0.51771 -0.0757,-0.19728 0.09605,-0.48377 0.381669,-0.63663 0.500156,-0.26767 0.64197,-0.15978 0.528598,0.40215 -0.02936,0.14552 0.0061,0.20505 0.07891,0.13229 0.07276,-0.0728 0.150698,-0.25135 0.173196,-0.39687 0.02249,-0.14552 0.229465,-0.47294 0.45993,-0.72761 0.230466,-0.25466 0.326464,-0.46302 0.213331,-0.46302 -0.11313,0 -0.04694,-0.19129 0.147101,-0.42509 0.406868,-0.49024 0.900665,-1.31534 1.26787,-2.11851 0.14062,-0.30757 0.469818,-0.6414 0.731549,-0.74184 0.397036,-0.15235 0.412833,-0.22157 0.09538,-0.41777 -0.29918,-0.1849 -0.226914,-0.29355 0.338143,-0.50838 0.65385,-0.24859 1.00119,-0.59552 0.5202,-0.51957 -0.568195,0.0897 -0.629687,-0.084 -0.19844,-0.5605 0.26339,-0.29105 0.38246,-0.52917 0.26459,-0.52917 -0.11787,0 0.001,-0.23813 0.26458,-0.52917 0.26339,-0.29104 0.38245,-0.52916 0.26458,-0.52916 -0.11786,0 10e-4,-0.23813 0.26459,-0.52917 0.26339,-0.29104 0.40005,-0.52917 0.30368,-0.52917 -0.0964,0 0.23953,-0.59004 0.74642,-1.31121 0.53308,-0.75841 0.80998,-1.38021 0.65681,-1.47487 -0.14565,-0.09 -0.2321,-0.006 -0.19211,0.18673 0.04,0.19272 -0.0761,0.32063 -0.25803,0.28425 -0.1819,-0.0364 -0.30097,0.0827 -0.26458,0.26458 0.0364,0.1819 -0.0667,0.30628 -0.22914,0.2764 -0.16241,-0.0299 -0.28147,0.20824 -0.26459,0.52917 0.0178,0.33742 -0.10877,0.5556 -0.30002,0.51735 -0.18191,-0.0364 -0.33073,0.0599 -0.33073,0.21405 0,0.15411 -0.12682,0.20182 -0.28182,0.10603 -0.18448,-0.11402 -0.12463,-0.34788 0.17329,-0.67708 0.25032,-0.27659 0.35869,-0.5029 0.24082,-0.5029 -0.11787,0 10e-4,-0.23812 0.26458,-0.52916 0.26339,-0.29105 0.38245,-0.52917 0.26458,-0.52917 -0.11786,0 0.001,-0.23813 0.26459,-0.52917 0.26339,-0.29104 0.38245,-0.52916 0.26458,-0.52916 -0.11787,0 -0.0113,-0.22429 0.23675,-0.49841 0.42575,-0.47045 0.42092,-0.58786 -0.086,-2.09253 -0.53922,-1.60065 -1.43411,-3.32974 -2.05493,-3.97051 -0.18316,-0.18905 -0.48451,-0.54944 -0.669651,-0.80088 -1.18487,-1.60909 -4.343138,-3.45422 -6.886945,-4.0235 -1.980904,-0.44331 -5.766681,-0.21086 -7.649297,0.46967 -4.149321,1.49989 -7.489675,5.31286 -8.430707,9.62353 -0.457465,2.09554 -0.211154,5.81817 0.508343,7.68279 1.518812,3.93608 4.383218,6.65405 8.628232,8.18713 1.717747,0.62036 5.838979,0.61088 7.48257,-0.0172 z m 0.730814,-1.31264 c -0.08373,-0.13547 -0.05106,-0.30883 0.07258,-0.38524 0.123642,-0.0764 0.224803,0.0344 0.224803,0.2463 0,0.44613 -0.08343,0.48511 -0.297381,0.13894 z m 2.023047,-1.00729 c -0.267886,-0.0959 -0.243478,-0.2385 0.107153,-0.62594 0.24973,-0.27595 0.357619,-0.50172 0.23975,-0.50172 -0.11787,0 0.0013,-0.23813 0.264583,-0.52917 0.26339,-0.29104 0.382453,-0.52917 0.264583,-0.52917 -0.117869,0 0.0013,-0.23812 0.264584,-0.52916 0.26339,-0.29105 0.382452,-0.52917 0.264583,-0.52917 -0.117869,0 -0.02574,-0.20836 0.204721,-0.46302 0.230466,-0.25466 0.399913,-0.52255 0.37655,-0.59531 -0.09019,-0.28087 0.799193,-1.30947 0.9778,-1.13086 0.103777,0.10378 0.110511,-0.015 0.01495,-0.26404 -0.111627,-0.2909 -0.02037,-0.51157 0.255284,-0.61735 0.235958,-0.0906 0.397139,-0.35944 0.358182,-0.59755 -0.0459,-0.2805 0.149092,-0.46403 0.553842,-0.52131 0.40304,-0.057 0.56084,0.0149 0.44474,0.20276 -0.099,0.16013 -0.27504,0.23237 -0.39128,0.16053 -0.11623,-0.0718 -0.19731,0.13458 -0.18015,0.45871 0.0171,0.32412 -0.1017,0.56486 -0.2641,0.53498 -0.162409,-0.0299 -0.281472,0.20825 -0.264586,0.52917 0.01688,0.32092 -0.102177,0.55905 -0.264583,0.52917 -0.162407,-0.0299 -0.281469,0.20824 -0.264583,0.52916 0.01688,0.32093 -0.09341,0.56198 -0.245103,0.53566 -0.15169,-0.0263 -0.293835,0.19157 -0.315878,0.48417 -0.0471,0.62526 -0.572198,1.33122 -0.858543,1.15425 -0.109803,-0.0679 -0.185611,0.0823 -0.168458,0.33364 0.01714,0.25137 -0.07457,0.47663 -0.203819,0.50058 -0.391181,0.0725 -0.681474,0.72488 -0.399965,0.89887 0.361211,0.22324 -0.324739,0.74163 -0.770269,0.58212 z m -0.435547,-1.63855 c -0.08373,-0.13546 -0.05106,-0.30882 0.07258,-0.38523 0.123642,-0.0764 0.224803,0.0344 0.224803,0.2463 0,0.44613 -0.08343,0.48511 -0.297381,0.13893 z m 1.5875,-3.175 c -0.08373,-0.13546 -0.05106,-0.30882 0.07258,-0.38523 0.123642,-0.0764 0.224803,0.0344 0.224803,0.2463 0,0.44613 -0.08343,0.48511 -0.297381,0.13893 z m 0.529167,-1.05833 c -0.08373,-0.13547 -0.05106,-0.30882 0.07258,-0.38524 0.123642,-0.0764 0.224803,0.0344 0.224803,0.2463 0,0.44614 -0.08343,0.48511 -0.297381,0.13894 z m 0.529166,-1.05833 c -0.08372,-0.13547 -0.05106,-0.30883 0.07258,-0.38524 0.123643,-0.0764 0.224803,0.0344 0.224803,0.2463 0,0.44613 -0.08343,0.48511 -0.297381,0.13894 z m 2.017819,-1.04896 c -0.2671,-0.16508 -0.26353,-0.26546 0.0178,-0.4989 0.19367,-0.16073 0.5026,-0.19924 0.6865,-0.0856 0.26711,0.16508 0.26354,0.26545 -0.0177,0.49889 -0.19367,0.16074 -0.5026,0.19925 -0.68651,0.0856 z m -0.959485,-0.53854 c -0.08373,-0.13547 -0.05106,-0.30883 0.07258,-0.38524 0.123642,-0.0764 0.224803,0.0344 0.224803,0.2463 0,0.44613 -0.08343,0.48511 -0.297381,0.13894 z m 0.529165,-1.05834 c -0.0837,-0.13546 -0.0511,-0.30882 0.0726,-0.38523 0.12364,-0.0764 0.2248,0.0344 0.2248,0.2463 0,0.44613 -0.0834,0.48511 -0.29738,0.13893 z m 1.5875,-3.175 c -0.0837,-0.13546 -0.0511,-0.30882 0.0726,-0.38523 0.12364,-0.0764 0.2248,0.0344 0.2248,0.2463 0,0.44613 -0.0834,0.48511 -0.29738,0.13893 z m 0.52917,-1.05833 c -0.0837,-0.13547 -0.0511,-0.30882 0.0726,-0.38524 0.12364,-0.0764 0.2248,0.0344 0.2248,0.2463 0,0.44614 -0.0834,0.48511 -0.29738,0.13894 z"
         style="fill:#eedaff;fill-opacity:1;stroke-width:0.264583" />
      <ellipse
         ry="16.932001"
         rx="17.224333"
         cy="230.84293"
         cx="91.01564"
         id="path951"
         style="fill:#b3b3b3;fill-opacity:1;stroke-width:0.264583" />
      <ellipse
         ry="32.320515"
         rx="32.168331"
         cy="249.97821"
         cx="481.54944"
         id="path957"
         style="fill:#cccccc;fill-opacity:1;stroke-width:0.374697" />
    </g>
  </g>
</svg>
