<?xml version="1.0" encoding="UTF-8" standalone="no"?>
<svg
   xmlns:dc="http://purl.org/dc/elements/1.1/"
   xmlns:cc="http://creativecommons.org/ns#"
   xmlns:rdf="http://www.w3.org/1999/02/22-rdf-syntax-ns#"
   xmlns:svg="http://www.w3.org/2000/svg"
   xmlns="http://www.w3.org/2000/svg"
   xmlns:sodipodi="http://sodipodi.sourceforge.net/DTD/sodipodi-0.dtd"
   xmlns:inkscape="http://www.inkscape.org/namespaces/inkscape"
   width="38.252941mm"
   height="12.801119mm"
   viewBox="0 0 38.252941 12.801117"
   version="1.1"
   id="svg8"
   inkscape:version="1.0 (5b275a35d9, 2020-05-03)"
   sodipodi:docname="applogo.svg">
  <defs
     id="defs2">
    <rect
       x="-4.7704268"
       y="113.45489"
       width="3.599102"
       height="20.838867"
       id="rect36" />
    <filter
       style="color-interpolation-filters:sRGB"
       inkscape:label="Inset"
       id="filter50"
       inkscape:menu="Shadows and Glows"
       inkscape:menu-tooltip="Shadowy outer bevel">
      <feFlood
         flood-opacity="0.498039"
         flood-color="rgb(0,0,11)"
         result="flood"
         id="feFlood40" />
      <feComposite
         in="flood"
         in2="SourceGraphic"
         operator="in"
         result="composite1"
         id="feComposite42" />
      <feGaussianBlur
         in="composite1"
         stdDeviation="22.8442"
         result="blur"
         id="feGaussianBlur44" />
      <feOffset
         dx="6"
         dy="6"
         result="offset"
         id="feOffset46" />
      <feComposite
         in="SourceGraphic"
         in2="offset"
         operator="over"
         result="fbSourceGraphic"
         id="feComposite48" />
      <feColorMatrix
         result="fbSourceGraphicAlpha"
         in="fbSourceGraphic"
         values="0 0 0 -1 0 0 0 0 -1 0 0 0 0 -1 0 0 0 0 1 0"
         id="feColorMatrix52" />
      <feGaussianBlur
         id="feGaussianBlur54"
         result="result0"
         in="fbSourceGraphicAlpha"
         stdDeviation="4" />
      <feOffset
         id="feOffset56"
         dx="5"
         dy="5"
         result="result4" />
      <feComposite
         in2="result4"
         id="feComposite58"
         in="fbSourceGraphic"
         operator="xor"
         result="fbSourceGraphic" />
      <feColorMatrix
         result="fbSourceGraphicAlpha"
         in="fbSourceGraphic"
         values="0 0 0 -1 0 0 0 0 -1 0 0 0 0 -1 0 0 0 0 1 0"
         id="feColorMatrix124" />
      <feMorphology
         id="feMorphology126"
         result="result1"
         in="fbSourceGraphicAlpha"
         operator="dilate"
         radius="3.6" />
      <feGaussianBlur
         id="feGaussianBlur128"
         stdDeviation="3.6"
         in="result1"
         result="result0" />
      <feDiffuseLighting
         id="feDiffuseLighting130"
         surfaceScale="-5"
         result="result5">
        <feDistantLight
           id="feDistantLight132"
           elevation="45"
           azimuth="225" />
      </feDiffuseLighting>
      <feComposite
         in2="result0"
         id="feComposite134"
         operator="in"
         result="result91" />
      <feComposite
         in2="result91"
         id="feComposite136"
         in="fbSourceGraphic" />
    </filter>
    <rect
       id="rect278"
       height="16.250336"
       width="1.705698"
       y="105.48298"
       x="-117.37149" />
    <rect
       id="rect36-9"
       height="20.838867"
       width="3.599102"
       y="113.45489"
       x="-4.7704268" />
    <filter
       inkscape:menu-tooltip="Shadowy outer bevel"
       inkscape:menu="Shadows and Glows"
       id="filter50-2"
       inkscape:label="Inset"
       style="color-interpolation-filters:sRGB">
      <feFlood
         id="feFlood40-2"
         result="flood"
         flood-color="rgb(0,0,11)"
         flood-opacity="0.498039" />
      <feComposite
         id="feComposite42-3"
         result="composite1"
         operator="in"
         in2="SourceGraphic"
         in="flood" />
      <feGaussianBlur
         id="feGaussianBlur44-1"
         result="blur"
         stdDeviation="22.8442"
         in="composite1" />
      <feOffset
         id="feOffset46-8"
         result="offset"
         dy="6"
         dx="6" />
      <feComposite
         id="feComposite48-3"
         result="fbSourceGraphic"
         operator="over"
         in2="offset"
         in="SourceGraphic" />
      <feColorMatrix
         id="feColorMatrix52-4"
         values="0 0 0 -1 0 0 0 0 -1 0 0 0 0 -1 0 0 0 0 1 0"
         in="fbSourceGraphic"
         result="fbSourceGraphicAlpha" />
      <feGaussianBlur
         stdDeviation="4"
         in="fbSourceGraphicAlpha"
         result="result0"
         id="feGaussianBlur54-2" />
      <feOffset
         result="result4"
         dy="5"
         dx="5"
         id="feOffset56-2" />
      <feComposite
         result="fbSourceGraphic"
         operator="xor"
         in="fbSourceGraphic"
         id="feComposite58-4"
         in2="result4" />
      <feColorMatrix
         id="feColorMatrix124-5"
         values="0 0 0 -1 0 0 0 0 -1 0 0 0 0 -1 0 0 0 0 1 0"
         in="fbSourceGraphic"
         result="fbSourceGraphicAlpha" />
      <feMorphology
         radius="3.6"
         operator="dilate"
         in="fbSourceGraphicAlpha"
         result="result1"
         id="feMorphology126-1" />
      <feGaussianBlur
         result="result0"
         in="result1"
         stdDeviation="3.6"
         id="feGaussianBlur128-7" />
      <feDiffuseLighting
         result="result5"
         surfaceScale="-5"
         id="feDiffuseLighting130-5">
        <feDistantLight
           azimuth="225"
           elevation="45"
           id="feDistantLight132-7" />
      </feDiffuseLighting>
      <feComposite
         result="result91"
         operator="in"
         id="feComposite134-1"
         in2="result0" />
      <feComposite
         in="fbSourceGraphic"
         id="feComposite136-6"
         in2="result91" />
    </filter>
    <filter
       id="filter432"
       style="color-interpolation-filters:sRGB"
       inkscape:menu-tooltip="Sharpen edges and boundaries within the object, force=0.15"
       inkscape:menu="Image Effects"
       inkscape:label="Sharpen">
      <feConvolveMatrix
         id="feConvolveMatrix430"
         targetY="1"
         targetX="1"
         in="SourceGraphic"
         divisor="1"
         kernelMatrix="0 -0.15 0 -0.15 1.6 -0.15 0 -0.15 0"
         order="3 3" />
    </filter>
  </defs>
  <sodipodi:namedview
     id="base"
     pagecolor="#ffffff"
     bordercolor="#666666"
     borderopacity="1.0"
     inkscape:pageopacity="0.0"
     inkscape:pageshadow="2"
     inkscape:zoom="1.48508"
     inkscape:cx="224.85101"
     inkscape:cy="44.984994"
     inkscape:document-units="mm"
     inkscape:current-layer="layer1-1"
     inkscape:document-rotation="0"
     showgrid="false"
     inkscape:window-width="1366"
     inkscape:window-height="709"
     inkscape:window-x="0"
     inkscape:window-y="0"
     inkscape:window-maximized="1" />
  <metadata
     id="metadata5">
    <rdf:RDF>
      <cc:Work
         rdf:about="">
        <dc:format>image/svg+xml</dc:format>
        <dc:type
           rdf:resource="http://purl.org/dc/dcmitype/StillImage" />
        <dc:title></dc:title>
      </cc:Work>
    </rdf:RDF>
  </metadata>
  <g
     inkscape:label="Layer 1"
     inkscape:groupmode="layer"
     id="layer1"
     transform="translate(208.25044,-77.495251)">
    <text
       xml:space="preserve"
       id="text34"
       style="font-style:normal;font-weight:normal;font-size:10.5833px;line-height:1.25;font-family:sans-serif;white-space:pre;shape-inside:url(#rect36);fill:#000000;fill-opacity:1;stroke:none;" />
    <g
       transform="translate(-126.47247,-73.764488)"
       id="layer1-1"
       inkscape:label="Layer 1">
      <text
         style="font-style:normal;font-weight:normal;font-size:10.5833px;line-height:1.25;font-family:sans-serif;white-space:pre;shape-inside:url(#rect36-9);fill:#000000;fill-opacity:1;stroke:none;"
         id="text34-3"
         xml:space="preserve" />
      <text
         style="font-style:normal;font-weight:normal;font-size:10.5833px;line-height:1.25;font-family:sans-serif;white-space:pre;shape-inside:url(#rect278);fill:#000000;fill-opacity:1;stroke:none;"
         id="text276"
         xml:space="preserve" />
      <path
         style="fill:#300d4f;fill-opacity:1;stroke-width:0.0997903"
         d="m -75.955752,163.94819 c -1.430994,-0.34363 -2.391416,-0.81657 -3.395906,-1.67228 -0.80213,-0.68331 -1.383526,-1.47001 -1.807428,-2.44569 -0.324834,-0.74767 -0.341108,-0.84809 -0.346191,-2.13623 -0.0046,-1.1734 0.02746,-1.43775 0.243104,-2.00422 0.398522,-1.04678 0.936846,-1.79661 1.878657,-2.61681 1.46295,-1.27404 2.81678,-1.79504 4.881649,-1.87865 0.940737,-0.0381 1.434645,-0.0125 2.045273,0.10608 1.623409,0.31518 3.304711,1.24023 4.259164,2.3434 0.244017,0.28203 0.424915,0.52392 0.401991,0.53751 -0.02295,0.0136 -0.25077,0.14169 -0.506333,0.28466 l -0.464653,0.25995 -0.164916,-0.21722 c -0.0907,-0.11947 -0.46226,-0.47043 -0.825679,-0.77992 -1.905914,-1.62306 -4.701755,-1.99483 -7.205763,-0.95816 -0.968515,0.40097 -2.305958,1.56809 -2.765441,2.41325 -0.885124,1.62808 -0.883406,3.32286 0.0051,4.92891 0.460367,0.83225 1.79145,1.98822 2.768616,2.40438 1.971461,0.83961 4.231475,0.76336 6.095624,-0.20567 l 0.610151,-0.31717 0.324566,0.38513 c 0.178508,0.21183 0.324481,0.40834 0.324371,0.43669 -4.06e-4,0.15062 -1.319426,0.75637 -2.243114,1.03025 -1.010523,0.29963 -3.076,0.35076 -4.112727,0.10181 z m 7.02782,-2.8694 c -0.03867,-0.088 -0.01361,-0.17374 0.05677,-0.19421 0.295675,-0.086 0.117049,-0.35758 -0.298917,-0.45447 -0.492691,-0.11475 -0.536459,-0.0933 -0.536459,0.26244 0,0.26674 -0.127611,0.32286 -0.471969,0.20754 -0.240427,-0.0805 -0.209009,-0.30394 0.07138,-0.50761 l 0.240358,-0.1746 -0.320472,-0.23317 c -0.390364,-0.28404 -0.589497,-0.30007 -0.663403,-0.0534 -0.07234,0.24139 -0.417758,0.24021 -0.566258,-0.002 -0.147744,-0.24091 -0.0537,-0.37096 0.268247,-0.37096 0.139944,0 0.278803,-0.0344 0.308576,-0.0764 0.102661,-0.14495 -0.222308,-0.90191 -0.400333,-0.93252 -0.09642,-0.0166 -0.175307,0.0178 -0.175307,0.0764 0,0.19509 -0.479046,0.0571 -0.512569,-0.14764 -0.04163,-0.25428 0.257404,-0.48485 0.431639,-0.3328 0.221951,0.19368 0.389352,0.11426 0.500665,-0.23753 0.11921,-0.37677 0.0033,-0.53156 -0.330627,-0.44101 -0.231587,0.0628 -0.339557,-0.0983 -0.257363,-0.3841 0.08046,-0.27976 0.4453,-0.30756 0.542138,-0.0413 0.09569,0.2631 0.295428,0.23162 0.567443,-0.0894 0.265545,-0.31342 0.29713,-0.46987 0.09487,-0.46987 -0.07638,0 -0.194307,-0.0484 -0.262063,-0.1075 -0.186629,-0.16287 0.03802,-0.45182 0.35128,-0.45182 0.207945,0 0.263302,0.0479 0.263302,0.22754 0,0.31728 0.08341,0.33581 0.72001,0.15994 0.558692,-0.15435 0.697158,-0.32537 0.443,-0.54716 -0.179548,-0.15667 -0.01397,-0.30642 0.338833,-0.30642 0.24295,0 0.314167,0.0423 0.314167,0.18644 0,0.10254 -0.04807,0.18644 -0.106824,0.18644 -0.05875,0 -0.106828,0.0752 -0.106828,0.16718 0,0.11616 0.129699,0.19739 0.42496,0.26616 0.492692,0.11476 0.536459,0.0933 0.536459,-0.26244 0,-0.21596 0.04632,-0.26413 0.253983,-0.26413 0.139689,0 0.316576,0.0658 0.393087,0.14627 0.118235,0.12433 0.09323,0.1782 -0.16663,0.35902 l -0.305734,0.21274 0.366462,0.28573 c 0.368241,0.28713 0.633899,0.27189 0.633899,-0.0364 0,-0.19945 0.405824,-0.15116 0.537777,0.064 0.133235,0.21725 -0.04717,0.50129 -0.270812,0.4264 -0.296639,-0.0993 -0.353354,0.0821 -0.179893,0.57535 0.149822,0.42606 0.204045,0.48668 0.390627,0.43669 0.465586,-0.12473 0.53648,-0.0986 0.570604,0.21026 0.0277,0.25075 -0.0033,0.30295 -0.180635,0.30295 -0.117764,0 -0.243822,-0.0419 -0.280134,-0.0932 -0.148053,-0.20905 -0.371599,-0.0739 -0.484833,0.29301 -0.130991,0.42452 -0.03464,0.56174 0.335124,0.47735 0.303766,-0.0693 0.383586,0.23222 0.121915,0.46056 -0.222136,0.19385 -0.452917,0.16266 -0.452917,-0.0612 0,-0.25085 -0.303314,-0.21523 -0.623742,0.0733 -0.332972,0.29979 -0.330473,0.44591 0.0095,0.55537 0.274569,0.0884 0.227699,0.33349 -0.08777,0.45893 -0.222386,0.0884 -0.293387,0.0836 -0.372762,-0.0253 -0.05393,-0.074 -0.07897,-0.18028 -0.05565,-0.2362 0.106279,-0.25481 -0.10719,-0.32743 -0.614457,-0.20904 -0.47043,0.10979 -0.630621,0.27503 -0.391611,0.40393 0.05875,0.0317 0.106823,0.13905 0.106823,0.23856 0,0.23945 -0.613124,0.25945 -0.716926,0.0233 z m 0.534086,-1.33446 c -0.03079,-0.10282 0.0037,-0.24964 0.07649,-0.32627 0.181538,-0.19088 0.712099,-0.17766 0.839446,0.0209 0.09328,0.14545 0.122509,0.139 0.316515,-0.0699 0.15175,-0.1634 0.181986,-0.26363 0.10424,-0.34551 -0.146549,-0.15434 -0.02917,-0.39736 0.191992,-0.39736 0.147224,0 0.168222,-0.0717 0.12317,-0.42049 -0.179166,-1.38715 -2.190559,-1.94724 -3.20708,-0.89302 -0.393948,0.40855 -0.543979,0.93497 -0.399725,1.40249 0.209391,0.67857 0.941213,1.20935 1.673791,1.21396 0.285381,0.002 0.328572,-0.0266 0.28116,-0.18481 z m 0.209497,-0.95501 c 0.0673,-0.17639 0.400642,-0.20146 0.400642,-0.0301 0,0.0865 -0.09133,0.14667 -0.222549,0.14667 -0.13054,0 -0.20417,-0.0482 -0.178093,-0.11652 z m 0.50747,-0.72795 c 0,-0.0543 0.04807,-0.0728 0.10682,-0.0411 0.05875,0.0317 0.106823,0.0761 0.106823,0.0987 0,0.0226 -0.04807,0.0411 -0.106823,0.0411 -0.05875,0 -0.10682,-0.0444 -0.10682,-0.0987 z m 21.46642,2.91036 -0.25307,-0.17883 0.556442,-0.70241 c 0.306043,-0.38632 0.556442,-0.72701 0.556442,-0.75709 0,-0.0301 -0.145757,-0.0547 -0.323904,-0.0547 -0.379736,0 -1.025095,-0.21945 -1.312621,-0.44635 -0.315127,-0.24868 -0.606782,-0.81792 -0.606782,-1.18428 0,-0.48332 0.228283,-0.88604 0.72312,-1.27569 0.71353,-0.56185 1.648265,-0.59278 2.457355,-0.0813 0.573471,0.36252 0.806923,0.82549 0.751769,1.49088 -0.04069,0.49089 -0.119752,0.62629 -1.094977,1.87521 -0.578117,0.74036 -1.084776,1.37925 -1.125912,1.41975 -0.04113,0.0405 -0.188673,-0.007 -0.327862,-0.10519 z m 1.393934,-2.42544 c 0.613846,-0.39296 0.608067,-1.27709 -0.01132,-1.73189 -0.567844,-0.41696 -1.517382,-0.25469 -1.856292,0.31722 -0.626202,1.05673 0.772154,2.11595 1.867612,1.41467 z m -17.870706,2.34667 c -0.04809,-0.0698 -1.935143,-3.77824 -2.28001,-4.48074 l -0.148728,-0.30297 h 0.361219 0.361218 l 0.841985,1.64222 c 0.463091,0.90323 0.881577,1.64781 0.929961,1.65465 0.04839,0.007 0.463782,-0.72168 0.923098,-1.61891 l 0.835118,-1.63135 0.384441,-0.0289 0.384442,-0.0289 -0.200314,0.40175 c -0.387107,0.77641 -2.276264,4.41054 -2.307926,4.43971 -0.0176,0.0162 -0.05564,-0.005 -0.0845,-0.0466 z m 3.449453,-2.4066 v -2.37711 h 0.320473 0.320473 v 2.37711 2.3771 h -0.320473 -0.320473 z m 1.922834,0.01 v -2.38692 h 0.995441 c 1.24407,0 1.976524,0.18086 2.543858,0.62814 0.654379,0.5159 0.887554,0.97538 0.887554,1.74896 0,0.96705 -0.49145,1.66942 -1.487789,2.12634 -0.346474,0.15889 -0.669433,0.20367 -1.683882,0.2335 l -1.255182,0.0369 z m 2.63441,1.54434 c 0.998921,-0.4449 1.372258,-1.40336 0.900068,-2.31074 -0.352388,-0.67716 -1.230856,-1.06121 -2.427406,-1.06121 h -0.359304 v 1.83131 1.8313 l 0.738283,-0.054 c 0.406405,-0.0297 0.922625,-0.13612 1.148359,-0.23666 z m 5.566381,-1.25119 -0.02875,-2.07415 -0.446433,-0.0283 c -0.444304,-0.0282 -0.445907,-0.0297 -0.336726,-0.30296 0.106039,-0.26546 0.132545,-0.27462 0.793612,-0.27462 h 0.683905 v 2.3771 2.3771 h -0.318427 -0.318429 z m -2.859586,0.58262 v -0.27967 h 0.961417 0.961417 v 0.27967 0.27966 h -0.961417 -0.961417 z"
         id="path512" />
      <path
         style="fill:#af31b9;fill-opacity:1;stroke-width:0.0997522"
         d="m -75.955622,163.94819 c -1.724249,-0.33107 -3.582144,-1.43411 -4.559525,-2.70699 -1.65443,-2.15464 -1.685854,-4.96739 -0.07891,-7.06309 1.354727,-1.76678 3.436941,-2.8046 5.831528,-2.90658 1.951515,-0.0831 3.419142,0.26897 4.941448,1.18546 0.63046,0.37955 1.946018,1.55676 1.945623,1.74101 -6.1e-5,0.0282 -0.231657,0.16278 -0.514662,0.29904 l -0.514552,0.24774 -0.256834,-0.32133 c -0.704427,-0.8813 -2.434045,-1.83801 -3.744573,-2.07124 -0.890431,-0.15847 -2.613046,-0.0652 -3.450625,0.18674 -1.777347,0.5347 -3.286667,1.82858 -3.910396,3.35224 -0.32731,0.79955 -0.407924,2.21964 -0.171001,3.01244 0.319313,1.06849 0.775181,1.74485 1.724602,2.55876 1.293703,1.10904 2.662661,1.6072 4.416618,1.6072 1.313247,0 2.664748,-0.34769 3.637646,-0.93582 l 0.286621,-0.17327 0.33287,0.38802 c 0.183078,0.21342 0.332779,0.41102 0.332674,0.4391 -4.07e-4,0.14947 -1.33176,0.74984 -2.262282,1.0203 -0.915016,0.26594 -2.957467,0.33782 -3.986272,0.14027 z m 29.853428,-2.99592 -0.259067,-0.16781 0.609212,-0.75815 c 0.335067,-0.417 0.609212,-0.76634 0.609212,-0.77633 0,-0.01 -0.181806,-0.005 -0.404014,0.0123 -0.82656,0.0623 -1.758246,-0.582 -1.921698,-1.32891 -0.165989,-0.7585 0.390637,-1.54333 1.30746,-1.84349 1.573662,-0.51521 3.135878,0.87684 2.484304,2.21369 -0.117201,0.24046 -1.80611,2.45075 -2.103036,2.75225 -0.03482,0.0354 -0.179886,-0.0112 -0.322373,-0.10352 z m 1.262117,-2.31827 c 0.769539,-0.40222 0.820594,-1.28501 0.104203,-1.80177 -0.298333,-0.2152 -0.413675,-0.24185 -0.880487,-0.20339 -0.717855,0.0591 -1.142531,0.43776 -1.142531,1.01865 0,0.45016 0.201869,0.74341 0.68593,0.99644 0.432683,0.22618 0.786589,0.22332 1.232885,-0.01 z m -18.054411,1.9419 c -0.117817,-0.22859 -0.61418,-1.1845 -1.103026,-2.12426 -0.48885,-0.93975 -0.955975,-1.84372 -1.038058,-2.00881 l -0.149237,-0.30016 h 0.365625 0.365628 l 0.841363,1.63936 c 0.462753,0.90167 0.871104,1.67068 0.90745,1.70894 0.03636,0.0383 0.444718,-0.6683 0.907491,-1.57011 0.462778,-0.90181 0.878251,-1.67385 0.923282,-1.71565 0.04503,-0.0418 0.225798,-0.0626 0.40171,-0.0462 l 0.319844,0.0298 -1.141107,2.17167 c -0.627606,1.19442 -1.196371,2.27502 -1.263925,2.40133 -0.121971,0.22808 -0.124304,0.22679 -0.33704,-0.18594 z m 3.638104,-2.07808 v -2.35515 h 0.323212 0.323211 v 2.35515 2.35516 h -0.323211 -0.323212 z m 1.939267,-0.002 v -2.37651 l 1.21204,0.0431 c 1.356232,0.0481 1.860873,0.18389 2.433524,0.65447 0.591424,0.48599 0.812445,0.94327 0.812445,1.68087 0,0.73936 -0.223749,1.20072 -0.812445,1.67521 -0.65626,0.52895 -0.995559,0.6235 -2.379656,0.66314 l -1.265908,0.0362 z m 2.652208,1.55527 c 0.671415,-0.29871 1.043665,-0.77413 1.096508,-1.40042 0.101343,-1.20106 -0.888501,-1.95396 -2.568914,-1.95396 h -0.425645 v 1.81341 1.81341 l 0.745615,-0.0457 c 0.435023,-0.0267 0.915081,-0.12113 1.152436,-0.22672 z m 5.643541,-1.2763 v -2.07808 h -0.479212 -0.479216 l 0.112676,-0.27707 c 0.109368,-0.26896 0.132896,-0.27708 0.802422,-0.27708 h 0.689751 v 2.35516 2.35515 h -0.32321 -0.323211 z m -2.9089,0.60033 v -0.27707 h 0.969634 0.969633 v 0.27707 0.27708 h -0.969633 -0.969634 z"
         id="path502" />
    </g>
  </g>
</svg>
